<svg width="300" height="51" viewBox="0 0 300 51" fill="none" xmlns="http://www.w3.org/2000/svg">
<g clip-path="url(#clip0_2_2)">
<mask id="mask0_2_2" style="mask-type:luminance" maskUnits="userSpaceOnUse" x="0" y="0" width="300" height="51">
<path d="M300 0H0V50.6144H300V0Z" fill="white"/>
</mask>
<g mask="url(#mask0_2_2)">
<path fill-rule="evenodd" clip-rule="evenodd" d="M228.709 42.3725C228.707 42.2676 228.727 42.1636 228.766 42.0664C228.805 41.9692 228.864 41.881 228.938 41.8069C229.012 41.7328 229.1 41.6743 229.197 41.635C229.295 41.5956 229.399 41.5762 229.504 41.5779H234.733C234.924 41.5779 235.106 41.6535 235.241 41.7881C235.375 41.9227 235.451 42.1053 235.451 42.2957C235.451 42.4861 235.375 42.6686 235.241 42.8032C235.106 42.9378 234.924 43.0135 234.733 43.0135H230.285V45.4615H234.157C234.347 45.4615 234.53 45.5371 234.664 45.6717C234.799 45.8063 234.874 45.9889 234.874 46.1793C234.874 46.3696 234.799 46.5522 234.664 46.6868C234.53 46.8214 234.347 46.897 234.157 46.897H230.285V49.8325C230.282 50.0392 230.197 50.2361 230.05 50.3809C229.902 50.5257 229.704 50.6069 229.497 50.6069C229.29 50.6069 229.092 50.5257 228.945 50.3809C228.797 50.2361 228.712 50.0392 228.709 49.8325V42.3725ZM275.286 4.07917C275.283 3.61459 275.371 3.15393 275.548 2.72401C275.724 2.29409 275.984 1.90349 276.312 1.57496C276.641 1.24643 277.031 0.986538 277.461 0.810408C277.891 0.634278 278.352 0.545431 278.816 0.549041H296.788C297.21 0.546451 297.629 0.627697 298.019 0.788069C298.41 0.94844 298.765 1.18475 299.063 1.48328C299.362 1.78182 299.598 2.13665 299.758 2.5272C299.919 2.91775 300 3.33624 299.997 3.75841C300 4.18056 299.919 4.59903 299.758 4.98955C299.598 5.38006 299.362 5.73486 299.063 6.03337C298.765 6.33189 298.41 6.56817 298.019 6.72852C297.629 6.88888 297.21 6.97012 296.788 6.96753H282.346V13.7998H294.724C295.576 13.7998 296.392 14.1379 296.994 14.7397C297.595 15.3415 297.934 16.1578 297.934 17.0089C297.934 17.86 297.595 18.6762 296.994 19.2781C296.392 19.8799 295.576 20.218 294.724 20.218H282.346V29.3875C282.346 30.3238 281.974 31.2217 281.312 31.8837C280.65 32.5457 279.752 32.9176 278.816 32.9176C277.88 32.9176 276.982 32.5457 276.32 31.8837C275.658 31.2217 275.286 30.3238 275.286 29.3875L275.286 4.07917ZM251.139 30.35L240.732 5.4557C240.482 4.92315 240.342 4.34591 240.319 3.75816C240.317 3.29603 240.407 2.83806 240.584 2.41121C240.761 1.98435 241.022 1.59725 241.351 1.27269C241.68 0.948124 242.07 0.692664 242.499 0.521348C242.929 0.350033 243.388 0.266325 243.85 0.275154C245.683 0.275154 246.876 1.3294 247.426 2.75103L255.449 23.5191L263.564 2.52149C263.843 1.85332 264.315 1.28318 264.919 0.883293C265.523 0.483403 266.232 0.271754 266.956 0.275154C267.409 0.264708 267.859 0.344647 268.281 0.510295C268.702 0.675943 269.086 0.923974 269.411 1.23987C269.735 1.55578 269.993 1.9332 270.17 2.35008C270.347 2.76695 270.439 3.2149 270.44 3.66771C270.422 4.2064 270.297 4.73614 270.074 5.22666L259.575 30.35C258.84 32.0922 257.512 33.1467 255.586 33.1467H255.128C253.202 33.1467 251.873 32.0922 251.139 30.35ZM228.709 3.80554C228.709 2.86929 229.081 1.97139 229.743 1.30936C230.405 0.647331 231.303 0.275407 232.239 0.275407C233.175 0.275407 234.073 0.647331 234.735 1.30936C235.397 1.97139 235.769 2.86929 235.769 3.80554V29.3875C235.769 30.3238 235.397 31.2217 234.735 31.8837C234.073 32.5457 233.175 32.9176 232.239 32.9176C231.303 32.9176 230.405 32.5457 229.743 31.8837C229.081 31.2217 228.709 30.3238 228.709 29.3875V3.80554ZM177.493 28.1032L188.68 2.84275C189.459 1.10036 190.88 0.0461124 192.806 0.0461124H193.219C195.144 0.0461124 196.52 1.10036 197.298 2.8425L208.484 28.103C208.707 28.5447 208.832 29.0295 208.851 29.5241C208.857 29.9675 208.775 30.4078 208.61 30.8193C208.444 31.2308 208.199 31.6053 207.887 31.9211C207.576 32.2368 207.205 32.4875 206.796 32.6586C206.387 32.8297 205.948 32.9178 205.504 32.9176C203.854 32.9176 202.754 31.9549 202.111 30.4874L199.958 25.4454H185.837L183.591 30.7177C183.335 31.3707 182.886 31.9307 182.305 32.3236C181.724 32.7165 181.037 32.9239 180.336 32.9184C179.904 32.9193 179.477 32.8341 179.078 32.6679C178.68 32.5018 178.319 32.2579 178.016 31.9505C177.713 31.6432 177.474 31.2785 177.313 30.8779C177.153 30.4772 177.074 30.0486 177.081 29.6171C177.11 29.0894 177.251 28.5739 177.493 28.1045M197.345 19.2114L192.897 8.62073L188.45 19.2114H197.345ZM160.823 30.35C161.558 32.0922 162.887 33.1467 164.812 33.1467H165.27C167.195 33.1467 168.525 32.0922 169.258 30.35L179.757 5.22666C179.981 4.7362 180.105 4.20643 180.124 3.66771C180.122 3.21498 180.03 2.76712 179.854 2.35032C179.677 1.93351 179.419 1.55613 179.094 1.24024C178.77 0.924356 178.386 0.676304 177.965 0.510594C177.544 0.344885 177.093 0.264844 176.641 0.275154C175.916 0.271721 175.207 0.483356 174.603 0.88325C174 1.28314 173.528 1.8533 173.248 2.52149L165.133 23.5191L157.11 2.75103C156.56 1.3294 155.368 0.275154 153.534 0.275154C153.072 0.266322 152.613 0.35007 152.184 0.521464C151.754 0.692857 151.364 0.948431 151.035 1.27313C150.706 1.59783 150.445 1.98508 150.268 2.41208C150.091 2.83908 150.001 3.29719 150.004 3.75943C150.027 4.34717 150.167 4.9244 150.417 5.45697L160.823 30.35ZM113.879 16.6881V16.5954C113.879 7.47426 121.077 0 130.98 0C140.882 0 147.989 7.38153 147.989 16.5047V16.5954C147.989 25.7185 140.791 33.1908 130.888 33.1908C120.986 33.1908 113.879 25.8095 113.879 16.6863M140.608 16.6863V16.5954C140.608 11.0938 136.573 6.50919 130.888 6.50919C125.204 6.50919 121.261 11.0019 121.261 16.5037V16.5954C121.261 22.0967 125.295 26.6813 130.979 26.6813C136.664 26.6813 140.607 22.1884 140.607 16.6871M79.9553 3.89675C79.9517 3.43219 80.0405 2.97156 80.2167 2.54166C80.3928 2.11177 80.6526 1.7212 80.9811 1.3927C81.3096 1.0642 81.7002 0.80433 82.1301 0.628215C82.56 0.452101 83.0206 0.363262 83.4852 0.366872H84.2199C85.9162 0.366872 86.9244 1.19208 87.8874 2.43002L101.503 20.3097V3.75943C101.503 2.83527 101.87 1.94897 102.524 1.29549C103.177 0.642019 104.064 0.274901 104.988 0.274901C105.912 0.274901 106.798 0.642019 107.452 1.29549C108.105 1.94897 108.472 2.83527 108.472 3.75943V29.2955C108.476 29.7602 108.387 30.2209 108.211 30.6508C108.035 31.0808 107.775 31.4714 107.446 31.7999C107.118 32.1285 106.727 32.3884 106.297 32.5645C105.867 32.7406 105.406 32.8294 104.942 32.8257H104.714C103.016 32.8257 102.009 32.0005 101.046 30.7628L86.9254 12.2418V29.4341C86.9309 29.8952 86.8449 30.3527 86.6723 30.7803C86.4998 31.2078 86.244 31.5968 85.92 31.9248C85.5959 32.2528 85.21 32.5132 84.7846 32.6909C84.3591 32.8687 83.9027 32.9602 83.4416 32.9602C82.9805 32.9602 82.5241 32.8687 82.0986 32.6909C81.6732 32.5132 81.2873 32.2528 80.9632 31.9248C80.6392 31.5968 80.3834 31.2078 80.2109 30.7803C80.0383 30.3527 79.9523 29.8952 79.9578 29.4341L79.9553 3.89675ZM32.0798 4.50229H32.0494C27.0054 4.50229 21.4225 7.7484 17.1515 11.4729C16.8981 10.09 16.1207 8.85828 14.9815 8.03445C10.1994 4.63404 3.96592 9.90656 0 14.8363L0.0488994 15.5145C3.22483 12.7361 6.95131 11.2327 10.5217 13.4623C11.3379 14.0309 11.9608 14.8354 12.3069 15.7679C10.3363 17.8236 8.61534 20.1048 7.17985 22.5642C5.62799 25.2627 5.46102 27.2033 6.45041 28.1448C8.2151 29.8301 12.0969 27.4318 14.3225 23.4068C15.6605 20.9999 16.6331 18.4961 17.0639 16.208C20.3725 12.5545 23.9683 11.0188 28.0161 10.9912C34.7809 10.9451 40.6901 19.2367 45.3731 23.7808C56.0618 34.1688 68.3421 25.6486 70.6226 18.6036L70.4331 18.1356C57.7355 31.7101 49.4292 4.60262 32.1208 4.50229H32.0798ZM8.56955 26.0636C6.44129 25.3838 10.1508 20.9611 11.4906 19.8417C11.9583 19.4551 12.4298 19.088 12.9125 18.7452C12.9911 20.7498 12.4305 22.7275 11.3117 24.3927C11.047 24.7829 9.93392 26.1156 8.90349 26.1156C8.7901 26.1157 8.6774 26.0979 8.56955 26.0629M295.143 47.064L292.053 42.8214C291.939 42.66 291.876 42.4677 291.874 42.2698C291.875 42.1676 291.897 42.0668 291.938 41.9731C291.979 41.8794 292.038 41.7949 292.112 41.7245C292.186 41.654 292.274 41.5991 292.369 41.5628C292.465 41.5266 292.567 41.5099 292.669 41.5135C292.827 41.5187 292.981 41.5652 293.116 41.6484C293.251 41.7317 293.362 41.8488 293.437 41.9881L295.937 45.5899L298.475 41.9752C298.549 41.8375 298.658 41.7214 298.791 41.6383C298.923 41.5553 299.075 41.508 299.231 41.5011C299.333 41.4982 299.434 41.5161 299.529 41.5537C299.624 41.5912 299.709 41.6478 299.781 41.7197C299.853 41.7917 299.91 41.8776 299.947 41.9722C299.985 42.0668 300.003 42.1681 300 42.2698C299.99 42.4765 299.914 42.6745 299.782 42.8341L296.719 47.0245V49.8315C296.715 50.0381 296.631 50.2349 296.483 50.3797C296.336 50.5245 296.137 50.6056 295.931 50.6056C295.724 50.6056 295.526 50.5245 295.378 50.3797C295.231 50.2349 295.146 50.0381 295.143 49.8315V47.064ZM285.888 43.0393H283.709C283.515 43.0393 283.329 42.9623 283.192 42.8253C283.055 42.6883 282.978 42.5025 282.978 42.3087C282.978 42.115 283.055 41.9291 283.192 41.7921C283.329 41.6551 283.515 41.5782 283.709 41.5782H289.669C289.86 41.5817 290.043 41.6603 290.177 41.7969C290.311 41.9335 290.386 42.1173 290.386 42.3087C290.386 42.5002 290.311 42.684 290.177 42.8206C290.043 42.9572 289.86 43.0357 289.669 43.0393H287.477V49.8328C287.473 50.0412 287.388 50.2397 287.239 50.3858C287.091 50.5318 286.891 50.6136 286.682 50.6136C286.474 50.6136 286.274 50.5318 286.125 50.3858C285.976 50.2397 285.891 50.0412 285.887 49.8328L285.888 43.0393ZM279.082 42.2959C279.085 42.0893 279.17 41.8924 279.318 41.7476C279.465 41.6027 279.663 41.5216 279.87 41.5216C280.077 41.5216 280.275 41.6027 280.423 41.7476C280.57 41.8924 280.655 42.0893 280.658 42.2959V49.8328C280.655 50.0394 280.57 50.2363 280.423 50.3812C280.275 50.526 280.077 50.6071 279.87 50.6071C279.663 50.6071 279.465 50.526 279.318 50.3812C279.17 50.2363 279.085 50.0394 279.082 49.8328V42.2959ZM270.43 42.2959C270.434 42.0894 270.519 41.8925 270.666 41.7477C270.813 41.603 271.012 41.5219 271.218 41.5219C271.425 41.5219 271.623 41.603 271.771 41.7477C271.918 41.8925 272.003 42.0894 272.007 42.2959V49.1147H276.07C276.258 49.1183 276.437 49.1955 276.569 49.3297C276.701 49.464 276.775 49.6446 276.775 49.8327C276.775 50.0208 276.701 50.2013 276.569 50.3356C276.437 50.4698 276.258 50.547 276.07 50.5506H271.225C271.12 50.5522 271.016 50.5328 270.919 50.4934C270.821 50.454 270.733 50.3955 270.659 50.3214C270.585 50.2473 270.527 50.159 270.487 50.0618C270.448 49.9646 270.429 49.8606 270.43 49.7558V42.2959ZM265.828 42.2959C265.828 42.0868 265.912 41.8863 266.059 41.7384C266.207 41.5905 266.408 41.5075 266.617 41.5075C266.826 41.5075 267.027 41.5905 267.174 41.7384C267.322 41.8863 267.405 42.0868 267.405 42.2959V49.8328C267.405 50.0419 267.322 50.2424 267.174 50.3903C267.027 50.5382 266.826 50.6213 266.617 50.6213C266.408 50.6213 266.207 50.5382 266.059 50.3903C265.912 50.2424 265.828 50.0419 265.828 49.8328V42.2959ZM259.01 43.0393H256.831C256.637 43.0393 256.452 42.9623 256.315 42.8253C256.178 42.6883 256.101 42.5025 256.101 42.3087C256.101 42.115 256.178 41.9291 256.315 41.7921C256.452 41.6551 256.637 41.5782 256.831 41.5782H262.79C262.981 41.5817 263.164 41.6603 263.298 41.7969C263.432 41.9335 263.507 42.1173 263.507 42.3087C263.507 42.5002 263.432 42.684 263.298 42.8206C263.164 42.9572 262.981 43.0357 262.79 43.0393H260.598V49.8328C260.594 50.041 260.509 50.2395 260.36 50.3854C260.212 50.5314 260.012 50.6131 259.804 50.6131C259.595 50.6131 259.395 50.5314 259.247 50.3854C259.098 50.2395 259.013 50.041 259.009 49.8328L259.01 43.0393ZM246.948 42.3727C246.947 42.2679 246.966 42.1638 247.005 42.0666C247.045 41.9695 247.103 41.8812 247.178 41.8071C247.252 41.733 247.34 41.6745 247.437 41.6352C247.534 41.5959 247.638 41.5765 247.743 41.5782H250.947C252.075 41.5782 252.96 41.9113 253.537 42.4753C254.031 42.9966 254.299 43.6926 254.281 44.4108V44.4361C254.281 45.8717 253.447 46.7432 252.242 47.1152L253.96 49.2815C254.117 49.4436 254.208 49.6581 254.216 49.8837C254.213 50.0808 254.131 50.2685 253.989 50.4056C253.848 50.5426 253.657 50.6177 253.46 50.6144C253.308 50.6167 253.157 50.5802 253.023 50.5085C252.888 50.4368 252.774 50.3321 252.691 50.2042L250.512 47.4228H248.525V49.8325C248.522 50.0392 248.437 50.2361 248.29 50.3809C248.142 50.5257 247.944 50.6069 247.737 50.6069C247.53 50.6069 247.332 50.5257 247.185 50.3809C247.037 50.2361 246.952 50.0392 246.949 49.8325L246.948 42.3727ZM250.832 46.0257C251.96 46.0257 252.678 45.4364 252.678 44.5261V44.5007C252.678 43.5395 251.986 43.014 250.819 43.014H248.525V46.026L250.832 46.0257ZM237.745 49.7558V42.3727C237.743 42.2679 237.763 42.1638 237.802 42.0666C237.842 41.9695 237.9 41.8812 237.974 41.8071C238.048 41.733 238.137 41.6745 238.234 41.6352C238.331 41.5959 238.435 41.5765 238.54 41.5782H243.757C243.943 41.5798 244.122 41.6546 244.254 41.7864C244.385 41.9182 244.46 42.0966 244.462 42.283C244.462 42.3757 244.444 42.4675 244.409 42.5532C244.373 42.6388 244.322 42.7167 244.256 42.7822C244.191 42.8477 244.113 42.8997 244.027 42.935C243.941 42.9703 243.85 42.9884 243.757 42.9881H239.322V45.3209H243.179C243.368 45.3232 243.548 45.4 243.68 45.5344C243.812 45.6689 243.886 45.8502 243.885 46.0386C243.882 46.2238 243.807 46.4005 243.675 46.5302C243.543 46.6599 243.365 46.7319 243.179 46.7306H239.322V49.1406H243.821C244.007 49.1422 244.186 49.2171 244.317 49.3489C244.449 49.4808 244.524 49.6592 244.526 49.8457C244.526 49.9383 244.508 50.0301 244.473 50.1157C244.437 50.2014 244.385 50.2792 244.32 50.3446C244.254 50.4101 244.176 50.4621 244.091 50.4974C244.005 50.5327 243.913 50.5508 243.821 50.5506H238.54C238.435 50.5522 238.331 50.5328 238.234 50.4934C238.137 50.4541 238.048 50.3956 237.974 50.3214C237.9 50.2473 237.842 50.159 237.802 50.0619C237.763 49.9647 237.743 49.8606 237.745 49.7558Z" fill="#B0366C"/>
</g>
</g>
<defs>
<clipPath id="clip0_2_2">
<rect width="300" height="50.6144" fill="white"/>
</clipPath>
</defs>
</svg>
