<?xml version="1.0" encoding="UTF-8"?>
<svg xmlns="http://www.w3.org/2000/svg" xmlns:xlink="http://www.w3.org/1999/xlink" width="300px" height="87px" viewBox="0 0 300 87" version="1.1">
<g id="surface1">
<path style=" stroke:none;fill-rule:evenodd;fill:rgb(95.686275%,47.45098%,19.607843%);fill-opacity:1;" d="M 98.828125 84.761719 L 98.828125 0 L 113.894531 0 L 113.894531 84.761719 Z M 98.828125 84.761719 "/>
<path style=" stroke:none;fill-rule:evenodd;fill:rgb(95.686275%,47.45098%,19.607843%);fill-opacity:1;" d="M 44.089844 33.554688 C 44.089844 32.589844 43.304688 31.804688 42.335938 31.804688 C 41.367188 31.804688 40.582031 32.589844 40.582031 33.554688 C 40.582031 34.523438 41.367188 35.308594 42.335938 35.308594 C 43.304688 35.308594 44.089844 34.523438 44.089844 33.554688 Z M 44.089844 33.554688 "/>
<path style=" stroke:none;fill-rule:evenodd;fill:rgb(95.686275%,47.45098%,19.607843%);fill-opacity:1;" d="M 44.089844 37.960938 C 44.089844 36.992188 43.304688 36.207031 42.335938 36.207031 C 41.367188 36.207031 40.582031 36.992188 40.582031 37.960938 C 40.582031 38.929688 41.367188 39.714844 42.335938 39.714844 C 43.304688 39.714844 44.089844 38.929688 44.089844 37.960938 Z M 44.089844 37.960938 "/>
<path style=" stroke:none;fill-rule:evenodd;fill:rgb(95.686275%,47.45098%,19.607843%);fill-opacity:1;" d="M 44.089844 42.363281 C 44.089844 41.394531 43.304688 40.613281 42.335938 40.613281 C 41.367188 40.613281 40.582031 41.394531 40.582031 42.363281 C 40.582031 43.328125 41.367188 44.113281 42.335938 44.113281 C 43.304688 44.113281 44.089844 43.328125 44.089844 42.363281 Z M 44.089844 42.363281 "/>
<path style=" stroke:none;fill-rule:evenodd;fill:rgb(95.686275%,47.45098%,19.607843%);fill-opacity:1;" d="M 44.089844 46.765625 C 44.089844 45.796875 43.304688 45.011719 42.335938 45.011719 C 41.367188 45.011719 40.582031 45.796875 40.582031 46.765625 C 40.582031 47.734375 41.367188 48.519531 42.335938 48.519531 C 43.304688 48.519531 44.089844 47.734375 44.089844 46.765625 Z M 44.089844 46.765625 "/>
<path style=" stroke:none;fill-rule:evenodd;fill:rgb(95.686275%,47.45098%,19.607843%);fill-opacity:1;" d="M 44.089844 51.167969 C 44.089844 50.199219 43.304688 49.414062 42.335938 49.414062 C 41.367188 49.414062 40.582031 50.199219 40.582031 51.167969 C 40.582031 52.136719 41.367188 52.925781 42.335938 52.925781 C 43.304688 52.925781 44.089844 52.136719 44.089844 51.167969 Z M 44.089844 51.167969 "/>
<path style=" stroke:none;fill-rule:evenodd;fill:rgb(95.686275%,47.45098%,19.607843%);fill-opacity:1;" d="M 52.890625 42.363281 C 52.890625 41.394531 52.109375 40.613281 51.140625 40.613281 C 50.171875 40.613281 49.386719 41.394531 49.386719 42.363281 C 49.386719 43.328125 50.171875 44.113281 51.140625 44.113281 C 52.109375 44.113281 52.890625 43.328125 52.890625 42.363281 Z M 52.890625 42.363281 "/>
<path style=" stroke:none;fill-rule:evenodd;fill:rgb(95.686275%,47.45098%,19.607843%);fill-opacity:1;" d="M 48.484375 42.363281 C 48.484375 43.328125 47.703125 44.113281 46.738281 44.113281 C 45.769531 44.113281 44.988281 43.328125 44.988281 42.363281 C 44.988281 41.394531 45.769531 40.613281 46.738281 40.613281 C 47.703125 40.613281 48.484375 41.394531 48.484375 42.363281 Z M 48.484375 42.363281 "/>
<path style=" stroke:none;fill-rule:evenodd;fill:rgb(95.686275%,47.45098%,19.607843%);fill-opacity:1;" d="M 39.6875 42.363281 C 39.6875 41.394531 38.902344 40.613281 37.933594 40.613281 C 36.964844 40.613281 36.179688 41.394531 36.179688 42.363281 C 36.179688 43.328125 36.964844 44.113281 37.933594 44.113281 C 38.902344 44.113281 39.6875 43.328125 39.6875 42.363281 Z M 39.6875 42.363281 "/>
<path style=" stroke:none;fill-rule:evenodd;fill:rgb(95.686275%,47.45098%,19.607843%);fill-opacity:1;" d="M 35.28125 42.363281 C 35.28125 41.394531 34.496094 40.613281 33.53125 40.613281 C 32.5625 40.613281 31.78125 41.394531 31.78125 42.363281 C 31.78125 43.328125 32.5625 44.113281 33.53125 44.113281 C 34.496094 44.113281 35.28125 43.328125 35.28125 42.363281 Z M 35.28125 42.363281 "/>
<path style=" stroke:none;fill-rule:nonzero;fill:rgb(95.686275%,47.45098%,19.607843%);fill-opacity:1;" d="M 55.515625 66.324219 C 51.488281 68.550781 46.984375 69.714844 42.328125 69.714844 C 27.253906 69.714844 14.988281 57.445312 14.988281 42.363281 C 14.988281 27.277344 27.253906 15.003906 42.328125 15.003906 C 57.40625 15.003906 69.671875 27.277344 69.671875 42.363281 C 69.671875 47.011719 68.511719 51.511719 66.300781 55.53125 L 59.253906 48.488281 L 48.46875 59.277344 Z M 84.664062 42.363281 C 84.664062 19.011719 65.671875 0.0117188 42.328125 0.0117188 C 18.988281 0.0117188 0 19.011719 0 42.363281 C 0 65.710938 18.988281 84.707031 42.328125 84.707031 C 51.023438 84.707031 59.296875 82.117188 66.386719 77.199219 L 76.011719 86.820312 L 86.785156 76.03125 L 77.167969 66.40625 C 82.078125 59.324219 84.664062 51.054688 84.664062 42.363281 "/>
<path style=" stroke:none;fill-rule:nonzero;fill:rgb(34.509804%,34.901961%,35.686275%);fill-opacity:1;" d="M 148.574219 32.417969 C 144.824219 32.417969 141.738281 31.132812 138.253906 28.117188 L 136.605469 26.6875 L 129.945312 34.621094 L 131.5 36.007812 C 136.246094 40.253906 142.097656 42.496094 148.414062 42.496094 C 157.625 42.496094 163.8125 37.179688 163.8125 29.265625 L 163.8125 29.15625 C 163.8125 20.644531 156.953125 17.828125 150.238281 16.195312 C 143.082031 14.484375 143.082031 13.542969 143.082031 12.449219 L 143.082031 12.34375 C 143.082031 10.996094 144.652344 10.089844 146.984375 10.089844 C 149.839844 10.089844 152.714844 11.199219 155.773438 13.480469 L 157.539062 14.792969 L 163.472656 6.421875 L 161.898438 5.15625 C 157.597656 1.691406 152.75 0.0078125 147.082031 0.0078125 C 138.492188 0.0078125 132.261719 5.441406 132.261719 12.921875 L 132.261719 13.035156 C 132.261719 22.066406 139.175781 24.496094 146.28125 26.214844 C 152.992188 27.765625 152.992188 28.84375 152.992188 29.796875 L 152.992188 29.898438 C 152.992188 31.757812 150.710938 32.417969 148.574219 32.417969 "/>
<path style=" stroke:none;fill-rule:nonzero;fill:rgb(34.509804%,34.901961%,35.686275%);fill-opacity:1;" d="M 180.199219 10.777344 L 185.628906 10.777344 C 189.519531 10.777344 191.492188 12.285156 191.492188 15.257812 L 191.492188 15.363281 C 191.492188 18.128906 189.246094 19.847656 185.628906 19.847656 L 180.199219 19.847656 Z M 202.421875 15.101562 C 202.421875 6.394531 195.886719 0.539062 186.160156 0.539062 L 169.378906 0.539062 L 169.378906 41.964844 L 180.199219 41.964844 L 180.199219 30.035156 L 185.417969 30.035156 C 195.585938 30.035156 202.421875 24.078125 202.421875 15.207031 Z M 202.421875 15.101562 "/>
<path style=" stroke:none;fill-rule:evenodd;fill:rgb(34.509804%,34.901961%,35.686275%);fill-opacity:1;" d="M 206.808594 0.539062 L 217.632812 0.539062 L 217.632812 41.964844 L 206.808594 41.964844 Z M 206.808594 0.539062 "/>
<path style=" stroke:none;fill-rule:nonzero;fill:rgb(34.509804%,34.901961%,35.686275%);fill-opacity:1;" d="M 234.851562 19.679688 L 252.125 41.964844 L 260.777344 41.964844 L 260.777344 0.539062 L 250.070312 0.539062 L 250.070312 22.082031 L 233.386719 0.539062 L 224.136719 0.539062 L 224.136719 41.964844 L 234.851562 41.964844 Z M 234.851562 19.679688 "/>
<path style=" stroke:none;fill-rule:nonzero;fill:rgb(34.509804%,34.901961%,35.686275%);fill-opacity:1;" d="M 299.277344 31.835938 L 278.015625 31.835938 L 278.015625 26.15625 L 296.625 26.15625 L 296.625 16.027344 L 278.015625 16.027344 L 278.015625 10.671875 L 299.011719 10.671875 L 299.011719 0.539062 L 267.195312 0.539062 L 267.195312 41.964844 L 299.277344 41.964844 Z M 299.277344 31.835938 "/>
<path style=" stroke:none;fill-rule:nonzero;fill:rgb(34.509804%,34.901961%,35.686275%);fill-opacity:1;" d="M 157.472656 71.613281 C 154.972656 73.945312 152.871094 75.296875 149.519531 75.296875 C 144.574219 75.296875 140.84375 71.203125 140.84375 65.773438 L 140.84375 65.679688 C 140.84375 60.300781 144.574219 56.246094 149.519531 56.246094 C 152.289062 56.246094 154.601562 57.296875 157.25 59.753906 L 158.878906 61.265625 L 165.367188 53.773438 L 163.890625 52.359375 C 161.117188 49.703125 156.980469 46.652344 149.566406 46.652344 C 138.695312 46.652344 130.5 54.871094 130.5 65.773438 L 130.5 65.867188 C 130.5 76.535156 138.773438 84.894531 149.332031 84.894531 C 155.382812 84.894531 159.828125 82.957031 164.195312 78.421875 L 165.652344 76.910156 L 159 70.191406 Z M 157.472656 71.613281 "/>
<path style=" stroke:none;fill-rule:nonzero;fill:rgb(34.509804%,34.901961%,35.686275%);fill-opacity:1;" d="M 178.980469 47.214844 L 168.917969 47.214844 L 168.917969 84.332031 L 196.234375 84.332031 L 196.234375 74.785156 L 178.980469 74.785156 Z M 178.980469 47.214844 "/>
<path style=" stroke:none;fill-rule:evenodd;fill:rgb(34.509804%,34.901961%,35.686275%);fill-opacity:1;" d="M 199.863281 47.214844 L 209.925781 47.214844 L 209.925781 84.332031 L 199.863281 84.332031 Z M 199.863281 47.214844 "/>
<path style=" stroke:none;fill-rule:nonzero;fill:rgb(34.509804%,34.901961%,35.686275%);fill-opacity:1;" d="M 214.347656 84.332031 L 224.316406 84.332031 L 224.316406 65.113281 L 239.203125 84.332031 L 247.230469 84.332031 L 247.230469 47.214844 L 237.265625 47.214844 L 237.265625 65.773438 L 222.894531 47.214844 L 214.347656 47.214844 Z M 214.347656 84.332031 "/>
<path style=" stroke:none;fill-rule:evenodd;fill:rgb(34.509804%,34.901961%,35.686275%);fill-opacity:1;" d="M 251.117188 47.214844 L 261.179688 47.214844 L 261.179688 84.332031 L 251.117188 84.332031 Z M 251.117188 47.214844 "/>
<path style=" stroke:none;fill-rule:nonzero;fill:rgb(34.509804%,34.901961%,35.686275%);fill-opacity:1;" d="M 283.585938 84.894531 C 289.640625 84.894531 294.082031 82.957031 298.445312 78.417969 L 299.898438 76.910156 L 293.253906 70.191406 L 291.726562 71.613281 C 289.222656 73.945312 287.117188 75.296875 283.769531 75.296875 C 278.824219 75.296875 275.09375 71.203125 275.09375 65.773438 L 275.09375 65.679688 C 275.09375 60.300781 278.824219 56.246094 283.769531 56.246094 C 286.539062 56.246094 288.847656 57.296875 291.496094 59.753906 L 293.125 61.265625 L 299.628906 53.773438 L 298.144531 52.359375 C 295.363281 49.703125 291.222656 46.652344 283.820312 46.652344 C 272.949219 46.652344 264.753906 54.871094 264.753906 65.773438 L 264.753906 65.867188 C 264.753906 76.535156 273.023438 84.894531 283.585938 84.894531 "/>
</g>
</svg>
